PathFileType	4	(X/Y/Z)	/Users/itak/Documents/Research/Walk-IL/dataset/trc/00346_00011.trc
DataRate	CameraRate	NumFrames	NumMarkers	Units	OrigDataRate	OrigDataStartFrame	OrigNumFrames
100.000000	100.000000	4	53	mm	100.000000	550	734
Frame#	Time	RPSI			LPSI			L3			STRN			T10			C7			CLAV			RBAK			LBAK			LSHO			LUPA			LAEL			LAOL			LWTS			LWPS			LFRA			LIFD			LHPS			LHTS			RSHO			RUPA			RAEL			RAOL			RWTS			RWPS			RFRA			RIFD			RHTS			RHPS			RBHD			LFHD			RFHD			LBHD			LHIP			RHIP			RASI			LASI			LKNE			LTHI			LANK			LTIP			LTOE			LMT1			LMT5			LHEE			RKNE			RTHI			RANK			RTIP			RTOE			RMT1			RMT5			RHEE			
		X1	Y1	Z1	X2	Y2	Z2	X3	Y3	Z3	X4	Y4	Z4	X5	Y5	Z5	X6	Y6	Z6	X7	Y7	Z7	X8	Y8	Z8	X9	Y9	Z9	X10	Y10	Z10	X11	Y11	Z11	X12	Y12	Z12	X13	Y13	Z13	X14	Y14	Z14	X15	Y15	Z15	X16	Y16	Z16	X17	Y17	Z17	X18	Y18	Z18	X19	Y19	Z19	X20	Y20	Z20	X21	Y21	Z21	X22	Y22	Z22	X23	Y23	Z23	X24	Y24	Z24	X25	Y25	Z25	X26	Y26	Z26	X27	Y27	Z27	X28	Y28	Z28	X29	Y29	Z29	X30	Y30	Z30	X31	Y31	Z31	X32	Y32	Z32	X33	Y33	Z33	X34	Y34	Z34	X35	Y35	Z35	X36	Y36	Z36	X37	Y37	Z37	X38	Y38	Z38	X39	Y39	Z39	X40	Y40	Z40	X41	Y41	Z41	X42	Y42	Z42	X43	Y43	Z43	X44	Y44	Z44	X45	Y45	Z45	X46	Y46	Z46	X47	Y47	Z47	X48	Y48	Z48	X49	Y49	Z49	X50	Y50	Z50	X51	Y51	Z51	X52	Y52	Z52	X53	Y53	Z53	

551	5.5	-530.9103393554688	958.8536987304688	520.35400390625	-408.6455383300781	955.1064453125	479.7732543945312	-480.4505310058594	1011.66943359375	498.5064086914062	-365.9734497070312	1206.53076171875	695.3544311523438	-478.7341003417969	1129.533813476562	486.0034484863281	-440.5344848632812	1378.35498046875	502.3029479980469	-376.3812866210938	1329.73486328125	645.9136962890625	-526.8162231445312	1242.0087890625	496.1699523925781	-357.7159118652344	1338.580078125	446.1820373535156	-268.4060974121094	1353.60693359375	496.3848876953125	-225.6232757568359	1232.9736328125	447.7026062011719	-223.2940826416016	1029.9990234375	447.2950134277344	-305.9041748046875	1022.754028320312	424.9028625488281	-225.6693725585938	784.8709106445312	548.6207275390625	-196.9531555175781	773.385498046875	485.6950073242188	-215.0997009277344	924.1218872070312	453.2026977539062	-269.4221801757812	613.791748046875	532.4679565429688	-211.9443817138672	703.1083374023438	483.8396301269531	-215.5098571777344	703.72607421875	547.8609619140625	-560.0177001953125	1376.273315429688	623.9615478515625	-624.2100219726562	1316.214599609375	647.74072265625	-667.4484252929688	1062.786743164062	727.5416259765625	-592.9165649414062	1021.76171875	674.0132446289062	-579.9834594726562	856.206787109375	851.8402099609375	-654.5917358398438	844.5507202148438	864.7601318359375	-666.4998168945312	1003.047058105469	770.0714721679688	-568.2598876953125	689.2005004882812	891.1058349609375	-572.3240356445312	761.5779418945312	898.7612915039062	-641.2891235351562	759.0174560546875	889.0633544921875	-470.5049743652344	1601.481079101562	598.8086547851562	-275.3563232421875	1581.822998046875	669.24951171875	-362.30712890625	1592.343383789062	719.7987670898438	-362.4740295410156	1584.913208007812	503.9771728515625	-282.9189147949219	899.5283203125	532.7055053710938	-613.463134765625	909.4487915039062	630.2061157226562	-540.2427978515625	936.671875	716.42822265625	-306.647216796875	929.4371948242188	663.3861694335938	-290.9841613769531	456.13720703125	699.38916015625	-269.5103759765625	589.1257934570312	655.8818359375	-393.3692321777344	48.96561813354492	709.2825317382812	-326.6323852539062	232.7516784667969	703.691650390625	-267.9896850585938	48.92887878417969	883.4358520507812	-347.2259216308594	30.21152305603027	871.7396850585938	-287.7552185058594	49.63531875610352	777.243408203125	-461.537841796875	42.45732116699219	740.0121459960938	-630.8378295898438	459.5181274414062	664.9821166992188	-612.5758056640625	704.4190673828125	702.127197265625	-711.922119140625	196.4266815185547	332.865966796875	-652.283203125	360.4570617675781	597.7154541015625	-677.6697998046875	39.02337265014648	440.4396362304688	-629.0758666992188	73.10797119140625	408.3598327636719	-737.9262084960938	106.6279220581055	375.2254638671875	-660.62109375	232.8305053710938	304.7684020996094	
552	5.51	-527.899658203125	958.0301513671875	528.2350463867188	-405.928466796875	954.8106079101562	485.8944091796875	-477.0513000488281	1012.001770019531	505.4059143066406	-361.1717224121094	1207.365234375	701.0426025390625	-474.9252624511719	1129.992065429688	493.2904968261719	-437.7006530761719	1378.995727539062	508.6353759765625	-372.2962036132812	1330.543090820312	651.7548217773438	-523.598388671875	1242.363525390625	503.176513671875	-354.9096069335938	1339.507080078125	451.7701721191406	-265.4937744140625	1354.728881835938	501.5487976074219	-221.9052734375	1234.1279296875	453.2972106933594	-217.1021270751953	1031.103149414062	454.5114135742188	-299.673828125	1022.843505859375	431.7750549316406	-216.8529815673828	787.6262817382812	559.2929077148438	-187.8729553222656	775.4948120117188	496.6996459960938	-207.6577453613281	925.3809204101562	461.7686767578125	-254.3502960205078	619.33642578125	549.7413940429688	-201.7834777832031	705.0973510742188	495.8699340820312	-205.5044555664062	706.6834716796875	559.9117431640625	-556.266357421875	1376.51220703125	631.3095092773438	-620.1005249023438	1316.1630859375	655.405517578125	-662.6986694335938	1062.208374023438	733.8223876953125	-587.807373046875	1021.220336914062	680.4425659179688	-575.5532836914062	854.6973266601562	856.60400390625	-650.102294921875	843.0179443359375	869.315185546875	-661.7822265625	1002.220092773438	775.9613647460938	-564.209716796875	687.1590576171875	893.7921752929688	-568.0847778320312	759.4443359375	902.4564819335938	-637.0526733398438	757.1454467773438	892.7032470703125	-467.1611328125	1602.1708984375	605.3414306640625	-271.406982421875	1582.817749023438	674.11865234375	-357.9214172363281	1593.248779296875	725.3783569335938	-359.894287109375	1585.734497070312	509.6208190917969	-279.3758850097656	899.8304443359375	537.1060180664062	-608.502197265625	909.2866821289062	639.9247436523438	-533.8740844726562	937.3615112304688	724.6663208007812	-300.9953002929688	930.1552124023438	668.178466796875	-288.2257690429688	455.756103515625	701.6754150390625	-265.6560974121094	589.1807250976562	659.313720703125	-393.0382385253906	49.02412796020508	709.2408447265625	-325.3155822753906	232.6384429931641	704.6525268554688	-267.5811462402344	48.14260864257812	883.5094604492188	-347.122802734375	30.25967597961426	871.749755859375	-287.2940063476562	48.98232650756836	777.3075561523438	-461.2526550292969	42.69430160522461	739.9898681640625	-623.2125244140625	459.8507995605469	685.6207275390625	-605.4120483398438	705.1845092773438	715.9490966796875	-711.8604125976562	204.729248046875	350.14599609375	-645.4368286132812	361.9776916503906	617.3873291015625	-672.6434326171875	41.24157333374023	450.7122802734375	-625.3642578125	78.66020965576172	418.1959838867188	-735.5357666015625	113.0326385498047	390.2901000976562	-661.94970703125	242.4293518066406	321.387939453125	
553	5.52	-525.002197265625	957.1558227539062	535.9971313476562	-403.3751220703125	954.5428466796875	491.8507080078125	-473.7648620605469	1012.334838867188	512.1278686523438	-356.4610900878906	1208.118774414062	706.5518188476562	-471.2396545410156	1130.473388671875	500.3443603515625	-434.9592590332031	1379.641357421875	514.8585815429688	-368.27001953125	1331.290771484375	657.4639282226562	-520.4398193359375	1242.731811523438	510.1192626953125	-352.2023620605469	1340.347900390625	457.23779296875	-262.6788330078125	1355.736328125	506.506103515625	-218.3532104492188	1235.139404296875	458.6618957519531	-210.9165649414062	1032.09912109375	461.480224609375	-293.3465576171875	1022.777282714844	438.5136413574219	-207.9426574707031	790.5007934570312	569.8287963867188	-178.6975250244141	777.66943359375	507.5886840820312	-200.1893615722656	926.5602416992188	470.1147766113281	-238.4816284179688	625.3734130859375	567.7609252929688	-191.4168395996094	707.1734619140625	507.9418029785156	-195.2253875732422	709.8717041015625	571.986083984375	-552.5687866210938	1376.740478515625	638.59716796875	-616.0205688476562	1316.085815429688	663.00634765625	-658.047119140625	1061.657836914062	740.1260375976562	-582.7293701171875	1020.631225585938	686.9266967773438	-571.1771240234375	853.2088012695312	861.29296875	-645.7022705078125	841.5398559570312	873.838623046875	-657.1318969726562	1001.42041015625	781.8522338867188	-560.225830078125	685.302734375	896.8435668945312	-563.94970703125	757.5170288085938	906.3081665039062	-632.8858032226562	755.4417724609375	896.4987182617188	-463.9016723632812	1602.848876953125	611.8236694335938	-267.517578125	1583.820434570312	678.8626098632812	-353.6028747558594	1594.11572265625	730.8775024414062	-357.4285583496094	1586.5830078125	515.1838989257812	-275.9387817382812	900.1956787109375	541.3232421875	-603.6359252929688	909.0875244140625	649.4329223632812	-527.6441040039062	938.0209350585938	732.7476806640625	-295.497802734375	930.82177734375	672.791259765625	-285.7157287597656	455.3553161621094	703.4769897460938	-262.0848083496094	589.1737670898438	662.337890625	-392.6864318847656	49.06792831420898	709.1390380859375	-324.14599609375	232.5617828369141	705.2901611328125	-267.2508239746094	47.47016143798828	883.5450439453125	-347.03759765625	30.35774993896484	871.7372436523438	-286.8657531738281	48.30897903442383	777.3235473632812	-460.9779968261719	42.96025085449219	739.916748046875	-614.9688720703125	460.3786010742188	705.9306030273438	-598.046630859375	706.0816040039062	729.550537109375	-711.1671752929688	211.9184722900391	368.2499084472656	-637.97509765625	363.431640625	637.0431518554688	-666.6810913085938	44.32717895507812	462.64208984375	-620.8653564453125	84.22803497314453	429.4572448730469	-732.4611206054688	118.660758972168	406.6489868164062	-662.7216796875	250.8241424560547	338.642578125	
554	5.53	-522.1943969726562	956.3583374023438	543.671142578125	-400.9868469238281	954.4133911132812	497.6898803710938	-470.6060791015625	1012.701171875	518.7177124023438	-351.8106079101562	1208.837768554688	711.9002685546875	-467.7258911132812	1130.98828125	507.1697998046875	-432.3109741210938	1380.298950195312	520.974365234375	-364.2872314453125	1332.012329101562	663.0304565429688	-517.367431640625	1243.138671875	517.0028686523438	-349.6224060058594	1341.109619140625	462.5993347167969	-259.9698486328125	1356.669189453125	511.2408447265625	-214.9976043701172	1236.05078125	463.7752380371094	-204.7639007568359	1033.044311523438	468.2366638183594	-286.9527893066406	1022.602233886719	445.1294860839844	-198.9750823974609	793.5282592773438	580.198974609375	-169.4565124511719	779.9580688476562	518.3349609375	-192.72412109375	927.7245483398438	478.2689819335938	-222.6626281738281	631.3198852539062	585.5665893554688	-180.8767700195312	709.39501953125	520.0092163085938	-184.7263488769531	713.3262939453125	584.0302124023438	-548.8997192382812	1376.99365234375	645.82275390625	-611.9511108398438	1316.041870117188	670.5531616210938	-653.4744873046875	1061.188842773438	746.431884765625	-577.73291015625	1020.10595703125	693.388916015625	-566.8345336914062	851.767333984375	865.8820190429688	-641.3842163085938	840.1619873046875	878.3250122070312	-652.5299682617188	1000.697937011719	787.71435546875	-556.3171997070312	683.6373901367188	900.224853515625	-559.911865234375	755.8175048828125	910.28076171875	-628.7816772460938	753.9324951171875	900.4270629882812	-460.7155151367188	1603.526245117188	618.24951171875	-263.6902770996094	1584.830688476562	683.4923706054688	-349.3485717773438	1594.94970703125	736.29833984375	-355.0635375976562	1587.468017578125	520.6663208007812	-272.6160888671875	900.6541748046875	545.3580322265625	-598.7998046875	908.9058837890625	658.752197265625	-521.4989624023438	938.7073974609375	740.6874389648438	-290.1352233886719	931.4644775390625	677.198974609375	-283.4267883300781	454.9874877929688	704.8927612304688	-258.8368835449219	589.1465454101562	665.002685546875	-392.3047180175781	49.10749053955078	708.977783203125	-323.0806274414062	232.5173034667969	705.6806030273438	-266.9993896484375	46.91488265991211	883.546875	-346.9713745117188	30.47816467285156	871.7161865234375	-286.47802734375	47.64336776733398	777.2969970703125	-460.7134094238281	43.24883270263672	739.8038940429688	-606.1703491210938	461.1622619628906	725.8298950195312	-590.4691772460938	707.138671875	742.9166259765625	-709.7962646484375	217.9143371582031	387.0264282226562	-629.9664306640625	364.8323974609375	656.5889892578125	-660.0464477539062	47.91889190673828	476.2561340332031	-615.7581787109375	89.55061340332031	442.2138366699219	-728.7152099609375	123.4231262207031	424.1758422851562	-662.7871704101562	257.8745422363281	356.4535827636719	
